<?xml version="1.0" encoding="utf-8"?>
<!-- Generator: Adobe Illustrator 20.1.0, SVG Export Plug-In . SVG Version: 6.00 Build 0)  -->
<svg version="1.1" id="Layer_1" xmlns="http://www.w3.org/2000/svg" xmlns:xlink="http://www.w3.org/1999/xlink" x="0px" y="0px"
	 viewBox="0 0 291.1 291" style="enable-background:new 0 0 291.1 291;" xml:space="preserve">
<style type="text/css">
	.st0{fill:#3AB34C;}
	.st1{fill:#E1EAE2;}
	.st2{fill:#2B7A3C;}
	.st3{fill:#79C585;}
	.st4{fill:#0E9347;}
	.st5{fill:#136032;}
	.st6{fill:#FCCE0F;}
	.st7{fill:#FFFFFF;}
</style>
<g>
	<path id="base_86_" class="st0" d="M0,101.8c0-40.2,32.6-48,72.8-48l145.5-14c40.2,0,69.5,43.6,69.5,83.7l3.3,94.8
		c0,40.2-32.6,72.8-72.8,72.8H72.8C32.6,291,0,258.4,0,218.2V101.8z"/>
	<path id="Combined-Shape_86_" class="st1" d="M291,87.3V72.8C291,32.6,258.4,0,218.2,0H72.8C32.6,0,0,32.6,0,72.8v14.5v14.5
		c0,40.2,32.6,72.8,72.8,72.8h145.5c40.2,0,72.8-32.6,72.8-72.8V87.3H291z"/>
	<path id="eye-left_76_" class="st2" d="M72.8,189.2c8,0,14.6,6.5,14.6,14.5s-6.5,14.6-14.6,14.6c-8,0-14.5-6.5-14.5-14.6
		C58.2,195.7,64.7,189.2,72.8,189.2L72.8,189.2z"/>
	<ellipse id="eye-right_76_" class="st2" cx="218.3" cy="203.7" rx="14.6" ry="14.6"/>
	<path id="nose_76_" class="st3" d="M145.5,203.7c24.1,0,43.7,16.3,43.7,36.4s-19.5,36.4-43.7,36.4s-43.6-16.3-43.6-36.4
		S121.4,203.7,145.5,203.7L145.5,203.7z"/>
	<path id="nose-hole-left_76_" class="st4" d="M123.7,232.8c4,0,7.3,3.3,7.3,7.3s-3.3,7.3-7.3,7.3s-7.3-3.3-7.3-7.3
		C116.4,236.1,119.7,232.8,123.7,232.8L123.7,232.8z"/>
	<ellipse id="nose-hole-right_76_" class="st4" cx="167.3" cy="240.1" rx="7.3" ry="7.3"/>
	<path id="top-hole_86_" class="st5" d="M212.2,115.2c3.1,0,6.1,3.8,6.1,6.9v3.2c0,3.1-2.9,6.6-6.1,6.6H78.8c-3.1,0-6.1-3.5-6.1-6.6
		v-3.2c0-3.1,2.9-6.9,6.1-6.9H212.2z"/>
	<path id="coin_83_" class="st6" d="M203.7,87.3c0,17.3-8.4,33.9-20.3,44.6c-13.8,0-63.5,0-75.8,0c-12.1-10.7-20.3-27.2-20.3-44.6
		c0-32.1,26.1-58.2,58.2-58.2C177.6,29.1,203.7,55.2,203.7,87.3z"/>
	<path id="number_83_" class="st7" d="M157.6,119.7h-22.7V80.3c0-4.8-4.5-4.5-4.5-4.5h-10.6c0,0,0-5.3,0-6.1
		c10.4-5.1,23-11.8,30.3-22.7c2.2,0,7.6,0,7.6,0v72.7H157.6z"/>
</g>
</svg>
