<?xml version="1.0" encoding="UTF-8" standalone="no"?>
<svg width="256px" height="256px" viewBox="0 0 256 256" version="1.1" xmlns="http://www.w3.org/2000/svg" xmlns:xlink="http://www.w3.org/1999/xlink" xmlns:sketch="http://www.bohemiancoding.com/sketch/ns">
    <!-- Generator: Sketch 3.4.2 (15855) - http://www.bohemiancoding.com/sketch -->
    <title>Images/app_icon</title>
    <desc>Created with Sketch.</desc>
    <defs>
        <filter x="-50%" y="-50%" width="200%" height="200%" filterUnits="objectBoundingBox" id="filter-1">
            <feOffset dx="0" dy="1" in="SourceAlpha" result="shadowOffsetOuter1"></feOffset>
            <feGaussianBlur stdDeviation="1.5" in="shadowOffsetOuter1" result="shadowBlurOuter1"></feGaussianBlur>
            <feColorMatrix values="0 0 0 0 0   0 0 0 0 0   0 0 0 0 0  0 0 0 0.14 0" in="shadowBlurOuter1" type="matrix" result="shadowMatrixOuter1"></feColorMatrix>
            <feMerge>
                <feMergeNode in="shadowMatrixOuter1"></feMergeNode>
                <feMergeNode in="SourceGraphic"></feMergeNode>
            </feMerge>
        </filter>
    </defs>
    <g id="Images" stroke="none" stroke-width="1" fill="none" fill-rule="evenodd" sketch:type="MSPage">
        <g id="Images/app_icon" sketch:type="MSArtboardGroup">
            <g id="App-icon" sketch:type="MSLayerGroup">
                <rect id="Rectangle-20" fill="#2BAF2B" sketch:type="MSShapeGroup" x="0" y="0" width="256" height="256" rx="24"></rect>
                <g id="app_icon_flat" transform="translate(24.000000, 24.000000)" sketch:type="MSShapeGroup">
                    <rect id="blue-background" fill-opacity="0" fill="#FFFFFF" x="0" y="0" width="208" height="208"></rect>
                    <g id="Group" transform="translate(26.000000, 14.000000)">
                        <path d="M95.9290469,37.0513371 C84.9777311,37.2972547 74.0352501,37.5734128 74.0068561,37.580076 C60.5298233,40.7089083 46.6734101,55.0712862 46.6734101,55.0712862 C46.6734101,55.0712862 44.5834313,51.4721355 40.1347458,48.6204157 C35.6860604,45.768696 31.2294712,46.320713 24.3272341,47.5163817 C17.424997,48.7120505 5.29047352,47.3673372 1.74507445,49.7244497 C-1.80032461,52.0815622 -0.266995968,63.0788446 9.34622938,68.2148106 C17.0241637,72.3174009 27.2256543,74.2704369 25.1819688,76.9775282 C22.6663162,80.3095028 13.8920181,82.9536641 8.21486319,89.025851 C2.53770826,95.0980378 1.42779511,103.265681 1.42779511,103.265681 C-1.42108547e-13,112.000002 8.67553924,121.591541 11.6078327,124.080034 C14.5401261,126.565214 15.8521496,135.712135 25.1808397,143.795872 C36.6480604,153.732178 46.3572599,153.304917 47.8036472,154.748993 C49.2500345,156.19307 53.5349993,164.599184 57.9836848,166.797316 C62.4323702,168.995448 69.0105533,166.770819 73.8194242,167.892518 C78.627166,169.014216 87.8508491,177.413707 96.4411026,176.655235 C101.157387,176.239014 105.365572,173.57498 108.883873,168.987719 C111.774389,165.218547 114.256168,159.52946 115.670941,158.034598 C121.060173,152.338887 128.673748,160.037316 137.162382,150.367082 C142.551614,144.226445 139.439793,142.660925 141.686718,137.222454 C143.932513,131.783983 160.748319,115.944407 159.78406,89.026955 C158.722699,59.3979953 141.504931,44.5951079 117.897542,36.7001609 C117.637323,36.6127682 110.140973,36.7447471 101.415384,36.9309956 L101.105448,44.2042798 L95.4599078,45.3083138 L95.9290469,37.0513371 Z M81.6847904,71.8735792 C81.7581824,71.8261057 77.2632036,75.2861482 77.3941801,80.6374009 C77.581612,88.2386747 82.5462998,93.8295028 86.4270439,97.1979104 C90.2829477,100.544237 97.3635838,101.449545 96.0052669,102.687167 C94.9822951,103.620076 93.3868655,103.822114 90.9434759,103.822114 C87.8068139,103.822114 85.7326425,101.099566 83.03972,98.3019444 C78.7389477,93.8339189 75.9669876,86.069248 76.2650721,81.7414348 C76.6557435,76.0777406 80.3174407,72.743558 81.6847904,71.8735792 Z M1.74394535,53.0365516 C1.74394535,53.0365516 2.99499699,50.6926875 6.26037727,50.8284837 C9.52575755,50.9642798 14.3899547,56.0936217 22.067889,58.5567214 C29.7458233,61.0198212 36.7462928,61.8688234 36.7462928,61.8688234 C36.7462928,61.8688234 37.5626378,61.597231 36.7462928,62.9728573 C35.9299477,64.3484837 34.8527787,64.9258934 34.4880768,65.1809253 C34.1233749,65.4359571 24.3611073,62.2762119 20.938781,60.7647894 C17.5164547,59.2533669 9.04024112,52.0859783 6.26037727,51.9325176 C3.48051342,51.7801609 1.74394535,53.0365516 1.74394535,53.0365516 Z M89.8143679,72.9091631 C89.8143679,72.9091631 100.438145,77.0625389 101.105448,86.1575707 C101.623708,93.2255962 99.9763397,97.1979104 99.9763397,97.1979104 C99.9763397,97.1979104 99.8893984,91.3884837 98.8472317,86.1575707 C97.1467951,77.6222841 89.8143679,72.9091631 89.8143679,72.9091631 Z M19.809673,86.1575707 C19.809673,86.1575707 20.6531167,79.6537066 25.455213,79.5333669 C31.3875463,79.3854263 31.1007529,85.0535367 31.1007529,85.0535367 C31.1007529,85.0535367 30.2798914,84.9453414 28.7013984,84.9861907 C28.4913843,84.9917108 28.0758726,81.7072098 25.455213,81.7414348 C23.8812364,81.7613074 23.4284641,85.4642374 23.1631238,85.5437278 C21.8612622,85.9334518 19.809673,86.1575707 19.809673,86.1575707 Z M37.8754007,122.590692 C37.8754007,122.590692 32.6792458,128.425511 27.7134289,128.110862 C22.747612,127.796212 22.0396613,122.327932 22.067889,118.174556 C22.0961167,114.02118 20.938781,111.550352 20.938781,111.550352 C20.938781,111.550352 25.6392576,113.94721 28.8425369,118.174556 C32.7932857,123.390012 37.8754007,122.590692 37.8754007,122.590692 Z M9.64770122,101.614046 C9.64770122,101.614046 9.0515322,95.7140888 14.1641331,90.5737066 C19.2767341,85.4333244 23.6091214,87.0054688 24.326105,87.2616047 C25.0430885,87.5177406 37.5648961,87.8633032 39.0045087,109.342284 C39.33195,114.236467 41.297727,117.331074 39.0045087,119.27859 C37.0963162,120.899312 34.5817928,121.409375 27.7134289,113.75842 C24.2922317,109.946191 15.3192106,107.753579 14.1641331,107.134216 C11.1866754,105.536679 10.1490252,103.452263 9.64770122,101.614046 Z M68.3613162,93.8858085 C72.7264477,93.8858085 76.2650721,97.345851 76.2650721,101.614046 C76.2650721,105.882242 72.7264477,109.342284 68.3613162,109.342284 C63.9961848,109.342284 60.4575604,105.882242 60.4575604,101.614046 C60.4575604,97.345851 63.9961848,93.8858085 68.3613162,93.8858085 Z M15.8577951,94.9898425 C16.7926965,94.9898425 17.5514571,96.9671673 17.5514571,99.4059783 C17.5514571,101.844789 16.7926965,103.822114 15.8577951,103.822114 C14.9228937,103.822114 14.1641331,101.844789 14.1641331,99.4059783 C14.1641331,96.9671673 14.9228937,94.9898425 15.8577951,94.9898425 Z M31.1007529,100.510012 C32.3484172,100.510012 33.3589688,102.734641 33.3589688,105.478165 C33.3589688,108.22169 32.3484172,110.446318 31.1007529,110.446318 C29.8530885,110.446318 28.8425369,108.22169 28.8425369,105.478165 C28.8425369,102.734641 29.8530885,100.510012 31.1007529,100.510012 Z M68.3613162,98.3019444 C70.2322482,98.3019444 71.7486402,99.784662 71.7486402,101.614046 C71.7486402,103.443431 70.2322482,104.926148 68.3613162,104.926148 C66.4903843,104.926148 64.9739923,103.443431 64.9739923,101.614046 C64.9739923,99.784662 66.4903843,98.3019444 68.3613162,98.3019444 Z" id="Shape-4" fill="#FFFFFF" filter="url(#filter-1)"></path>
                        <path d="M112.795586,43.1483163 C113.577562,39.9511348 114,36.5406867 114,33 C114,14.7746033 102.807119,0 89,0 C75.1928813,0 64,14.7746033 64,33 C64,41.9556066 66.7025761,50.0780022 71.0899043,56.0236591 L78.5999756,58 C92.5521055,48.8724488 105.484076,44.845644 112.795586,43.1483163 Z" id="Oval-1" fill="#E4C200"></path>
                        <path d="M119.040946,42.0835721 C119.665545,39.1978219 120,36.1504676 120,33 C120,14.7746033 108.807119,0 95,0 C81.1928813,0 70,14.7746033 70,33 C70,42.9755172 73.3531946,51.917236 78.6529082,57.9683449 C102.025632,43.9969844 119,42 119,42 C119,42 119.014123,42.028427 119.040946,42.0835721 Z" id="Oval-1-Copy" fill="#FFF200"></path>
                        <path d="M78.5999756,58 L71,56 C71,56 76,58 79,60 C100,46 119,42 119,42 C119,42 102,44 78.5999756,58 Z" id="Path-132" fill="#C2960B"></path>
                        <path d="M98.2345557,15.7074645 L97.1054477,42.2042798 L91.0600586,44.7000122 L92.5890158,23.4357023 L89.2016918,23.4357023 L98.2345557,15.7074645 Z" id="Shape" fill="#E4C200"></path>
                        <path d="M99.805315,14.3394367 L98.2345557,15.7074645 L97.1054477,42.2042798 L91.0600586,44.7000122 L90.9094238,46.5220959 L98.5423975,43.3019927 L99.805315,14.3394367 Z" id="Shape-Copy" fill="#C2960B"></path>
                    </g>
                </g>
            </g>
        </g>
    </g>
</svg>